ModelForces
version=1
nRows=11
nColumns=21
inDegrees=no

This file contains the forces exerted on a model during a simulation.

A force is a generalized force, meaning that it can be either a force (N) or a torque (Nm).

Units are S.I. units (second, meters, Newtons, ...)
Angles are in degrees.

endheader
time	muscle1	muscle2	contactForce.block.force.X	contactForce.block.force.Y	contactForce.block.force.Z	contactForce.block.torque.X	contactForce.block.torque.Y	contactForce.block.torque.Z	contactForce.ground.force.X	contactForce.ground.force.Y	contactForce.ground.force.Z	contactForce.ground.torque.X	contactForce.ground.torque.Y	contactForce.ground.torque.Z	ground_prescribedForce_fx	ground_prescribedForce_fy	ground_prescribedForce_fz	ground_prescribedForce_px	ground_prescribedForce_py	ground_prescribedForce_pz
      2.28545065	    328.80832369	     56.07336253	     77.90452602	    670.13570871	    -24.13674897	     13.04972533	      1.53187425	    -13.06826438	    -77.90452602	   -670.13570871	     24.13674897	     -1.97781037	     -2.22971527	     29.42937844	   -336.18921905	      0.00000000	      0.00000000	      0.05713627	      0.00000000	      0.00000000
      2.28614370	    336.91655009	     56.21431793	     76.90185606	    667.84550558	    -24.06856174	     13.06791053	      1.54279386	    -13.01630711	    -76.90185606	   -667.84550558	     24.06856174	     -1.98580310	     -2.23117479	     29.32399200	   -336.29116741	      0.00000000	      0.00000000	      0.05715359	      0.00000000	      0.00000000
      2.28683676	    332.44775536	     56.35557548	     75.82533303	    665.60950804	    -23.95041800	     13.08402212	      1.55770861	    -12.96920998	    -75.82533303	   -665.60950804	     23.95041800	     -1.99405426	     -2.23630228	     29.22037126	   -336.39311578	      0.00000000	      0.00000000	      0.05717092	      0.00000000	      0.00000000
      2.28752982	    340.36196512	     56.49799997	     74.80786607	    663.43454151	    -23.89765862	     13.10389922	      1.56945110	    -12.92053055	    -74.80786607	   -663.43454151	     23.89765862	     -2.00256375	     -2.23773940	     29.11884045	   -336.49506414	      0.00000000	      0.00000000	      0.05718825	      0.00000000	      0.00000000
      2.28822287	    335.97405853	     56.64073290	     73.71819880	    661.32153568	    -23.79878602	     13.12195617	      1.58505658	    -12.87689799	    -73.71819880	   -661.32153568	     23.79878602	     -2.01126750	     -2.24265660	     29.01952387	   -336.59701250	      0.00000000	      0.00000000	      0.05720557	      0.00000000	      0.00000000
      2.28891593	    343.83569859	     56.78458687	     72.68813530	    659.27703773	    -23.76403678	     13.14377484	      1.59756576	    -12.83191974	    -72.68813530	   -659.27703773	     23.76403678	     -2.02016312	     -2.24398871	     28.92273763	   -336.69896087	      0.00000000	      0.00000000	      0.05722290	      0.00000000	      0.00000000
      2.28960898	    339.61300743	     56.92874413	     71.58735918	    657.30201592	    -23.68682784	     13.16401766	      1.61381379	    -12.79217874	    -71.58735918	   -657.30201592	     23.68682784	     -2.02918883	     -2.24862223	     28.82860734	   -336.80090923	      0.00000000	      0.00000000	      0.05724022	      0.00000000	      0.00000000
      2.29030204	    347.32461416	     57.07396802	     70.54587616	    655.40272611	    -23.67182472	     13.18798572	      1.62708210	    -12.75136632	    -70.54587616	   -655.40272611	     23.67182472	     -2.03834021	     -2.24981673	     28.73744001	   -336.90285759	      0.00000000	      0.00000000	      0.05725755	      0.00000000	      0.00000000
      2.29099510	    343.40120227	     57.21948651	     69.43650312	    653.58017134	    -23.61892437	     13.21066769	      1.64389831	    -12.71590933	    -69.43650312	   -653.58017134	     23.61892437	     -2.04755799	     -2.25407026	     28.64936197	   -337.00480596	      0.00000000	      0.00000000	      0.05727488	      0.00000000	      0.00000000
      2.29168815	    350.83795164	     57.36601027	     68.38499086	    651.84028832	    -23.62548913	     13.23699687	      1.65790349	    -12.67970478	    -68.38499086	   -651.84028832	     23.62548913	     -2.05683585	     -2.25508221	     28.56466963	   -337.10675432	      0.00000000	      0.00000000	      0.05729220	      0.00000000	      0.00000000
      2.29238121	    347.26094575	     57.51281705	     67.26977996	    650.18410908	    -23.59939611	     13.26236295	      1.67520517	    -12.64889871	    -67.26977996	   -650.18410908	     23.59939611	     -2.06611722	     -2.25885863	     28.48348945	   -337.20870268	      0.00000000	      0.00000000	      0.05730953	      0.00000000	      0.00000000
